
<svg xmlns="http://www.w3.org/2000/svg"
xmlns:xlink="http://www.w3.org/1999/xlink"
width="376" height="616"
viewBox="0 0 376 616"
preserveAspectRatio="none"
>

<style type="text/css">
<![CDATA[
use.med {
transform: scale(1.1);
}

use.r15 {
transform: rotate(15deg);
}

use.r345 {
transform: rotate(-15deg);
}
]]>
</style>

<symbol id="spot">
<circle stroke="red" fill="dimgrey" stroke-width="1"
cx="3" cy="3" r="2"
/>
</symbol>
<symbol id="rock">
<ellipse
    fill="#241c1c"
    stroke-width="7"
    rx="13" ry="6.6" cy="10" cx="10"
  />
  <path style="fill:#6c5353;stroke-width:7" d="m53.214 1008.4c-0.26777 2.0125-2.9286 2.7679-8.3036 2.7679s-8.6608-0.934-8.6607-2.9465c0 0 5.5132 1.4474 8.8393 1.4286 3.6707-0.021 8.125-1.25 8.125-1.25z"/>
</symbol>
<symbol id="wattle">
<path d="m8 10 c-0.89167 1.7151-1.511 3.5-3.375 3.5s-3.375-1.567-3.375-3.5 7.636-5.5 9.5-5.5-2.75 5.5-2.75 5.5z" style="stroke:#000;stroke-width:0.8;fill:#520"/>
  <path d="m16 12 c0.06787 1.9318-1.511 3.5-3.375 3.5s-3.375-1.567-3.375-3.5c0-3.433 3.875-6.875 3.875-6.875s2.75 3.317 2.875 6.875z" style="stroke:#000;stroke-width:0.8;fill:#520"/>
  <path d="m24 10 c0 1.933-1.511 3.5-3.375 3.5s-3.375-1.567-3.375-3.5-1.739-5.375 0.125-5.375 6.625 3.442 6.625 5.375z" style="stroke:#000;stroke-width:0.8;fill:#520"/>
</symbol>
<symbol id="slab">
<path
    stroke="black"
    stroke-width="0.4"
    fill="#241c1c;"
    d="m12 11 c1.8327-1.3799 16.346-2.0293 19.5 0 3.1543 2.0293 2.9043 9.9707-0.125 12.375s-14.096 2.5293-17.625-0.75c-3.5293-3.2793-4.2793-9.7207-1.75-11.625z"
/>
</symbol>
<symbol id="leaf">
<path
    d="M 12 11 C 21,2 17,22 23,27 C 8,25 3,11 12,11 z M 18,16 C 16,14 17,22 20,24 z"
    stroke-width="0.2"
    stroke="yellow"
    fill="green"
    fill-rule="evenodd"
    transform="inherit"
/>
</symbol>
</svg>

