<!-- Created with Inkscape (http://www.inkscape.org/) -->
<svg xmlns:rdf="http://www.w3.org/1999/02/22-rdf-syntax-ns#" xmlns="http://www.w3.org/2000/svg" height="64" width="64" version="1.1" xmlns:cc="http://creativecommons.org/ns#" xmlns:xlink="http://www.w3.org/1999/xlink" viewBox="0 0 64.000001 64.000001" xmlns:dc="http://purl.org/dc/elements/1.1/">
 <g transform="translate(0 -988.36)">
  <symbol id="spot" transform="translate(239.63 318.99)">
   <circle style="stroke:#f00;fill:#696969" cx="3" r="2" cy="3"/>
  </symbol>
  <symbol id="leaf" transform="translate(239.63 318.99)">
   <path style="stroke:#ff0;stroke-width:.2;fill:#008000;fill-rule:evenodd" d="m12 11c9-9 5 11 11 16-15-2-20-16-11-16zm6 5c-2-2-1 6 2 8z"/>
  </symbol>
  <use xlink:href="#leaf" transform="translate(-388.57 477.5)" height="100%" width="100%" y="190" x="149" class="r45"/>
  <ellipse style="fill:#241c1c;stroke-width:7" rx="13.036" ry="6.6071" cy="1004.9" cx="44.821"/>
  <path style="fill:#6c5353;stroke-width:7" d="m53.214 1008.4c-0.26777 2.0125-2.9286 2.7679-8.3036 2.7679s-8.6608-0.934-8.6607-2.9465c0 0 5.5132 1.4474 8.8393 1.4286 3.6707-0.021 8.125-1.25 8.125-1.25z"/>
  <path d="m12.438 1032.6c-0.89167 1.7151-1.511 3.5-3.375 3.5s-3.375-1.567-3.375-3.5 7.636-5.5 9.5-5.5-2.75 5.5-2.75 5.5z" style="stroke:#000;stroke-width:0.8;fill:#520"/>
  <path d="m18.938 1038.1c0.06787 1.9318-1.511 3.5-3.375 3.5s-3.375-1.567-3.375-3.5c0-3.433 3.875-6.875 3.875-6.875s2.75 3.317 2.875 6.875z" style="stroke:#000;stroke-width:0.8;fill:#520"/>
  <path d="m25.812 1032.6c0 1.933-1.511 3.5-3.375 3.5s-3.375-1.567-3.375-3.5-1.739-5.375 0.125-5.375 6.625 3.442 6.625 5.375z" style="stroke:#000;stroke-width:0.8;fill:#520"/>
  <path style="stroke:#000;stroke-width:0.4;fill:#241c1c" d="m35 1026.5c1.8327-1.3799 16.346-2.0293 19.5 0 3.1543 2.0293 2.9043 9.9707-0.125 12.375s-14.096 2.5293-17.625-0.75c-3.5293-3.2793-4.2793-9.7207-1.75-11.625z"/>
 </g>
 <style type="text/css">#use.med {transform: scale(1.4);}
#use.r45 {transform: rotate(45 16 16);}</style>
</svg>
